# xmcd
#
# Track frame offsets:
#	150
#	9535
#	26218
#	45617
#	60697
#	77649
#	86616
#	99679
#	114091
#	124279
#	152710
#	166022
#	177674
#	193926
#	220085
#	232220
#	246089
#	263363
#
# Disc length: 3669 seconds
#
# Revision: 0
# Processed by: cddbd v1.5.2PL0 Copyright (c) Steve Scherf et al.
# Submitted via: EasyCDDAExtractor 12.0.1.1
#
DISCID=f00e5312
DTITLE=Bill Withers - The Best of Bill Withers
DYEAR=2009
DGENRE=Soul
TTITLE0=Ain't No Sunshine
TTITLE1=Use Me
TTITLE2=Lean On Me
TTITLE3=Harlem
TTITLE4=Kissing My Love
TTITLE5=Grandma's Hands
TTITLE6=Do It Good
TTITLE7=Who Is He? (And What Is He To You?)
TTITLE8=Better Off Dead
TTITLE9=Make Love To Your Mind
TTITLE10=Moanin' and Groanin'
TTITLE11=Let It Be
TTITLE12=Lonely Town, Lonely Street
TTITLE13=Watching You Watching Me
TTITLE14=Let Me In Your Life
TTITLE15=I Don't Know
TTITLE16=Hope She'll Be Happier
TTITLE17=Take It All In And Check It Out
EXTD=
EXTT0=
EXTT1=
EXTT2=
EXTT3=
EXTT4=
EXTT5=
EXTT6=
EXTT7=
EXTT8=
EXTT9=
EXTT10=
EXTT11=
EXTT12=
EXTT13=
EXTT14=
EXTT15=
EXTT16=
EXTT17=
PLAYORDER=
